<mxfile host="app.diagrams.net" modified="2023-06-12T07:01:48.572Z" agent="Mozilla/5.0 (Windows NT 10.0; Win64; x64) AppleWebKit/537.36 (KHTML, like Gecko) Chrome/114.0.0.0 Safari/537.36" etag="r-qQdBbKQnlCH-S64qPD" version="21.3.7" type="github">
  <diagram id="C5RBs43oDa-KdzZeNtuy" name="Page-1">
    <mxGraphModel dx="7370" dy="3751" grid="1" gridSize="10" guides="1" tooltips="1" connect="1" arrows="1" fold="1" page="1" pageScale="1" pageWidth="827" pageHeight="1169" math="0" shadow="0">
      <root>
        <mxCell id="WIyWlLk6GJQsqaUBKTNV-0" />
        <mxCell id="WIyWlLk6GJQsqaUBKTNV-1" parent="WIyWlLk6GJQsqaUBKTNV-0" />
        <mxCell id="FX1WW6UfW3RBcX6lJCIJ-9" value="" style="edgeStyle=orthogonalEdgeStyle;rounded=0;orthogonalLoop=1;jettySize=auto;html=1;fontFamily=Helvetica;fontSize=12;fontColor=#FFFFFF;" edge="1" parent="WIyWlLk6GJQsqaUBKTNV-1" source="WIyWlLk6GJQsqaUBKTNV-3" target="FX1WW6UfW3RBcX6lJCIJ-8">
          <mxGeometry relative="1" as="geometry" />
        </mxCell>
        <mxCell id="WIyWlLk6GJQsqaUBKTNV-3" value="调用开始" style="rounded=0;whiteSpace=wrap;html=1;fontSize=12;glass=0;strokeWidth=1;shadow=0;fontFamily=Helvetica;fontColor=#FFFFFF;" parent="WIyWlLk6GJQsqaUBKTNV-1" vertex="1">
          <mxGeometry x="110" y="30" width="120" height="40" as="geometry" />
        </mxCell>
        <mxCell id="WIyWlLk6GJQsqaUBKTNV-11" value="结束" style="rounded=0;whiteSpace=wrap;html=1;fontSize=12;glass=0;strokeWidth=1;shadow=0;fontFamily=Helvetica;fontColor=#FFFFFF;" parent="WIyWlLk6GJQsqaUBKTNV-1" vertex="1">
          <mxGeometry x="-230" y="810" width="120" height="40" as="geometry" />
        </mxCell>
        <mxCell id="FX1WW6UfW3RBcX6lJCIJ-4" value="MyBatisMapperProxy" style="swimlane;horizontal=0;whiteSpace=wrap;html=1;rounded=0;fontFamily=Helvetica;fontSize=12;fontColor=#FFFFFF;" vertex="1" parent="WIyWlLk6GJQsqaUBKTNV-1">
          <mxGeometry x="50" y="90" width="3200" height="675" as="geometry" />
        </mxCell>
        <mxCell id="FX1WW6UfW3RBcX6lJCIJ-11" value="Yes" style="edgeStyle=orthogonalEdgeStyle;rounded=0;orthogonalLoop=1;jettySize=auto;html=1;fontFamily=Helvetica;fontSize=12;fontColor=#FFFFFF;" edge="1" parent="FX1WW6UfW3RBcX6lJCIJ-4" source="FX1WW6UfW3RBcX6lJCIJ-8" target="FX1WW6UfW3RBcX6lJCIJ-10">
          <mxGeometry relative="1" as="geometry" />
        </mxCell>
        <mxCell id="FX1WW6UfW3RBcX6lJCIJ-13" value="Proxy 对象" style="edgeStyle=orthogonalEdgeStyle;rounded=0;orthogonalLoop=1;jettySize=auto;html=1;fontFamily=Helvetica;fontSize=12;fontColor=#FFFFFF;" edge="1" parent="FX1WW6UfW3RBcX6lJCIJ-4" source="FX1WW6UfW3RBcX6lJCIJ-8" target="FX1WW6UfW3RBcX6lJCIJ-12">
          <mxGeometry relative="1" as="geometry">
            <Array as="points">
              <mxPoint x="120" y="180" />
            </Array>
          </mxGeometry>
        </mxCell>
        <mxCell id="FX1WW6UfW3RBcX6lJCIJ-8" value="是否是非代理对象" style="rhombus;whiteSpace=wrap;html=1;rounded=0;glass=0;strokeWidth=1;shadow=0;fontFamily=Helvetica;fontSize=12;fontColor=#FFFFFF;" vertex="1" parent="FX1WW6UfW3RBcX6lJCIJ-4">
          <mxGeometry x="40" y="60" width="160" height="80" as="geometry" />
        </mxCell>
        <mxCell id="FX1WW6UfW3RBcX6lJCIJ-10" value="调用&lt;br style=&quot;font-size: 12px;&quot;&gt;Method.invoke&lt;br style=&quot;font-size: 12px;&quot;&gt;并返回" style="whiteSpace=wrap;html=1;rounded=0;glass=0;strokeWidth=1;shadow=0;fontFamily=Helvetica;fontSize=12;fontColor=#FFFFFF;" vertex="1" parent="FX1WW6UfW3RBcX6lJCIJ-4">
          <mxGeometry x="480" y="70" width="120" height="60" as="geometry" />
        </mxCell>
        <mxCell id="FX1WW6UfW3RBcX6lJCIJ-19" value="" style="edgeStyle=orthogonalEdgeStyle;rounded=0;orthogonalLoop=1;jettySize=auto;html=1;fontFamily=Helvetica;fontSize=12;fontColor=#FFFFFF;" edge="1" parent="FX1WW6UfW3RBcX6lJCIJ-4" source="FX1WW6UfW3RBcX6lJCIJ-12" target="FX1WW6UfW3RBcX6lJCIJ-18">
          <mxGeometry relative="1" as="geometry" />
        </mxCell>
        <mxCell id="FX1WW6UfW3RBcX6lJCIJ-12" value="从 methodCache 中&lt;br style=&quot;font-size: 12px;&quot;&gt;获取 MethodInvoker" style="whiteSpace=wrap;html=1;rounded=0;glass=0;strokeWidth=1;shadow=0;fontFamily=Helvetica;fontSize=12;fontColor=#FFFFFF;" vertex="1" parent="FX1WW6UfW3RBcX6lJCIJ-4">
          <mxGeometry x="480" y="150" width="120" height="60" as="geometry" />
        </mxCell>
        <mxCell id="FX1WW6UfW3RBcX6lJCIJ-18" value="是否存在" style="rhombus;whiteSpace=wrap;html=1;rounded=0;glass=0;strokeWidth=1;shadow=0;fontFamily=Helvetica;fontSize=12;fontColor=#FFFFFF;" vertex="1" parent="FX1WW6UfW3RBcX6lJCIJ-4">
          <mxGeometry x="500" y="250" width="80" height="80" as="geometry" />
        </mxCell>
        <mxCell id="FX1WW6UfW3RBcX6lJCIJ-32" value="False" style="edgeStyle=orthogonalEdgeStyle;rounded=0;orthogonalLoop=1;jettySize=auto;html=1;fontFamily=Helvetica;fontSize=12;fontColor=#FFFFFF;" edge="1" parent="FX1WW6UfW3RBcX6lJCIJ-4" source="FX1WW6UfW3RBcX6lJCIJ-29" target="FX1WW6UfW3RBcX6lJCIJ-31">
          <mxGeometry relative="1" as="geometry" />
        </mxCell>
        <mxCell id="FX1WW6UfW3RBcX6lJCIJ-29" value="方法被 default 修饰" style="rhombus;whiteSpace=wrap;html=1;rounded=0;glass=0;strokeWidth=1;shadow=0;fontFamily=Helvetica;fontSize=12;fontColor=#FFFFFF;" vertex="1" parent="FX1WW6UfW3RBcX6lJCIJ-4">
          <mxGeometry x="475" y="430" width="130" height="90" as="geometry" />
        </mxCell>
        <mxCell id="FX1WW6UfW3RBcX6lJCIJ-27" value="执行自定义 Function 方法" style="whiteSpace=wrap;html=1;rounded=0;glass=0;strokeWidth=1;shadow=0;fontFamily=Helvetica;fontSize=12;fontColor=#FFFFFF;" vertex="1" parent="FX1WW6UfW3RBcX6lJCIJ-4">
          <mxGeometry x="460" y="360" width="160" height="40" as="geometry" />
        </mxCell>
        <mxCell id="FX1WW6UfW3RBcX6lJCIJ-28" value="No" style="edgeStyle=orthogonalEdgeStyle;rounded=0;orthogonalLoop=1;jettySize=auto;html=1;fontFamily=Helvetica;fontSize=12;fontColor=#FFFFFF;" edge="1" parent="FX1WW6UfW3RBcX6lJCIJ-4" source="FX1WW6UfW3RBcX6lJCIJ-18" target="FX1WW6UfW3RBcX6lJCIJ-27">
          <mxGeometry relative="1" as="geometry" />
        </mxCell>
        <mxCell id="FX1WW6UfW3RBcX6lJCIJ-30" value="" style="edgeStyle=orthogonalEdgeStyle;rounded=0;orthogonalLoop=1;jettySize=auto;html=1;fontFamily=Helvetica;fontSize=12;fontColor=#FFFFFF;" edge="1" parent="FX1WW6UfW3RBcX6lJCIJ-4" source="FX1WW6UfW3RBcX6lJCIJ-27" target="FX1WW6UfW3RBcX6lJCIJ-29">
          <mxGeometry relative="1" as="geometry" />
        </mxCell>
        <mxCell id="FX1WW6UfW3RBcX6lJCIJ-31" value="创建&lt;br style=&quot;font-size: 12px;&quot;&gt;PlainMethodInvoker" style="whiteSpace=wrap;html=1;rounded=0;glass=0;strokeWidth=1;shadow=0;fontFamily=Helvetica;fontSize=12;fontColor=#FFFFFF;" vertex="1" parent="FX1WW6UfW3RBcX6lJCIJ-4">
          <mxGeometry x="280" y="445" width="120" height="60" as="geometry" />
        </mxCell>
        <mxCell id="FX1WW6UfW3RBcX6lJCIJ-72" value="创建 DefaultMethodInvoker" style="whiteSpace=wrap;html=1;rounded=0;glass=0;strokeWidth=1;shadow=0;fontFamily=Helvetica;fontSize=12;fontColor=#FFFFFF;" vertex="1" parent="FX1WW6UfW3RBcX6lJCIJ-4">
          <mxGeometry x="280" y="570" width="120" height="60" as="geometry" />
        </mxCell>
        <mxCell id="FX1WW6UfW3RBcX6lJCIJ-73" value="" style="edgeStyle=orthogonalEdgeStyle;rounded=0;orthogonalLoop=1;jettySize=auto;html=1;fontFamily=Helvetica;fontSize=12;fontColor=#FFFFFF;" edge="1" parent="FX1WW6UfW3RBcX6lJCIJ-4" source="FX1WW6UfW3RBcX6lJCIJ-29" target="FX1WW6UfW3RBcX6lJCIJ-72">
          <mxGeometry relative="1" as="geometry">
            <Array as="points">
              <mxPoint x="540" y="600" />
            </Array>
          </mxGeometry>
        </mxCell>
        <mxCell id="FX1WW6UfW3RBcX6lJCIJ-24" value="MapperMethodInvoker" style="swimlane;horizontal=0;whiteSpace=wrap;html=1;rounded=0;fontFamily=Helvetica;fontSize=12;fontColor=#FFFFFF;" vertex="1" parent="WIyWlLk6GJQsqaUBKTNV-1">
          <mxGeometry x="50" y="965" width="3200" height="325" as="geometry" />
        </mxCell>
        <mxCell id="FX1WW6UfW3RBcX6lJCIJ-25" value="execute(SqlSession sqlSession, Object[] args)" style="rounded=0;whiteSpace=wrap;html=1;fontFamily=Helvetica;fontSize=12;fontColor=#FFFFFF;" vertex="1" parent="FX1WW6UfW3RBcX6lJCIJ-24">
          <mxGeometry x="870" y="85" width="290" height="60" as="geometry" />
        </mxCell>
        <mxCell id="FX1WW6UfW3RBcX6lJCIJ-35" value="MyBatisMapperMethod" style="swimlane;horizontal=0;whiteSpace=wrap;html=1;rounded=0;fontFamily=Helvetica;fontSize=12;fontColor=#FFFFFF;" vertex="1" parent="WIyWlLk6GJQsqaUBKTNV-1">
          <mxGeometry x="50" y="765" width="3200" height="200" as="geometry" />
        </mxCell>
        <mxCell id="FX1WW6UfW3RBcX6lJCIJ-33" value="创建&lt;br style=&quot;font-size: 12px;&quot;&gt;MyBatisMapperMethod" style="whiteSpace=wrap;html=1;rounded=0;glass=0;strokeWidth=1;shadow=0;fontFamily=Helvetica;fontSize=12;fontColor=#FFFFFF;" vertex="1" parent="FX1WW6UfW3RBcX6lJCIJ-35">
          <mxGeometry x="80" y="70" width="120" height="60" as="geometry" />
        </mxCell>
        <mxCell id="FX1WW6UfW3RBcX6lJCIJ-74" value="调用&amp;nbsp; MapperMethod.execute" style="whiteSpace=wrap;html=1;rounded=0;glass=0;strokeWidth=1;shadow=0;fontFamily=Helvetica;fontSize=12;fontColor=#FFFFFF;" vertex="1" parent="FX1WW6UfW3RBcX6lJCIJ-35">
          <mxGeometry x="940" y="85" width="150" height="60" as="geometry" />
        </mxCell>
        <mxCell id="FX1WW6UfW3RBcX6lJCIJ-34" value="" style="edgeStyle=orthogonalEdgeStyle;rounded=0;orthogonalLoop=1;jettySize=auto;html=1;fontFamily=Helvetica;fontSize=12;fontColor=#FFFFFF;" edge="1" parent="WIyWlLk6GJQsqaUBKTNV-1" source="FX1WW6UfW3RBcX6lJCIJ-31" target="FX1WW6UfW3RBcX6lJCIJ-33">
          <mxGeometry relative="1" as="geometry" />
        </mxCell>
        <mxCell id="FX1WW6UfW3RBcX6lJCIJ-39" style="edgeStyle=orthogonalEdgeStyle;rounded=0;orthogonalLoop=1;jettySize=auto;html=1;fontFamily=Helvetica;fontSize=12;fontColor=#FFFFFF;" edge="1" parent="WIyWlLk6GJQsqaUBKTNV-1" source="FX1WW6UfW3RBcX6lJCIJ-33" target="FX1WW6UfW3RBcX6lJCIJ-38">
          <mxGeometry relative="1" as="geometry" />
        </mxCell>
        <mxCell id="FX1WW6UfW3RBcX6lJCIJ-71" value="" style="edgeStyle=orthogonalEdgeStyle;rounded=0;orthogonalLoop=1;jettySize=auto;html=1;fontFamily=Helvetica;fontSize=12;fontColor=#FFFFFF;" edge="1" parent="WIyWlLk6GJQsqaUBKTNV-1" source="FX1WW6UfW3RBcX6lJCIJ-33" target="FX1WW6UfW3RBcX6lJCIJ-70">
          <mxGeometry relative="1" as="geometry">
            <mxPoint x="250" y="850" as="sourcePoint" />
            <Array as="points">
              <mxPoint x="320" y="770" />
            </Array>
          </mxGeometry>
        </mxCell>
        <mxCell id="FX1WW6UfW3RBcX6lJCIJ-75" value="执行 Invoke" style="edgeStyle=orthogonalEdgeStyle;orthogonalLoop=1;jettySize=auto;html=1;exitX=1;exitY=0.5;exitDx=0;exitDy=0;rounded=0;fontFamily=Helvetica;fontSize=12;fontColor=#FFFFFF;" edge="1" parent="WIyWlLk6GJQsqaUBKTNV-1" source="FX1WW6UfW3RBcX6lJCIJ-18" target="FX1WW6UfW3RBcX6lJCIJ-74">
          <mxGeometry relative="1" as="geometry">
            <mxPoint x="620" y="380" as="sourcePoint" />
          </mxGeometry>
        </mxCell>
        <mxCell id="FX1WW6UfW3RBcX6lJCIJ-37" value="PlainMethodInvoker" style="swimlane;horizontal=0;whiteSpace=wrap;html=1;rounded=0;fontFamily=Helvetica;fontSize=12;fontColor=#FFFFFF;" vertex="1" parent="WIyWlLk6GJQsqaUBKTNV-1">
          <mxGeometry x="50" y="1290" width="3200" height="1100" as="geometry" />
        </mxCell>
        <mxCell id="FX1WW6UfW3RBcX6lJCIJ-41" value="" style="edgeStyle=orthogonalEdgeStyle;rounded=0;orthogonalLoop=1;jettySize=auto;html=1;fontFamily=Helvetica;fontSize=12;fontColor=#FFFFFF;" edge="1" parent="FX1WW6UfW3RBcX6lJCIJ-37" source="FX1WW6UfW3RBcX6lJCIJ-38" target="FX1WW6UfW3RBcX6lJCIJ-40">
          <mxGeometry relative="1" as="geometry" />
        </mxCell>
        <mxCell id="FX1WW6UfW3RBcX6lJCIJ-38" value="创建 SqlCommand" style="rounded=0;whiteSpace=wrap;html=1;fontFamily=Helvetica;fontSize=12;fontColor=#FFFFFF;" vertex="1" parent="FX1WW6UfW3RBcX6lJCIJ-37">
          <mxGeometry x="210" y="30" width="120" height="60" as="geometry" />
        </mxCell>
        <mxCell id="FX1WW6UfW3RBcX6lJCIJ-43" value="" style="edgeStyle=orthogonalEdgeStyle;rounded=0;orthogonalLoop=1;jettySize=auto;html=1;fontFamily=Helvetica;fontSize=12;fontColor=#FFFFFF;" edge="1" parent="FX1WW6UfW3RBcX6lJCIJ-37" source="FX1WW6UfW3RBcX6lJCIJ-40" target="FX1WW6UfW3RBcX6lJCIJ-42">
          <mxGeometry relative="1" as="geometry" />
        </mxCell>
        <mxCell id="FX1WW6UfW3RBcX6lJCIJ-57" value="" style="edgeStyle=orthogonalEdgeStyle;rounded=0;orthogonalLoop=1;jettySize=auto;html=1;fontFamily=Helvetica;fontSize=12;fontColor=#FFFFFF;" edge="1" parent="FX1WW6UfW3RBcX6lJCIJ-37" source="FX1WW6UfW3RBcX6lJCIJ-40" target="FX1WW6UfW3RBcX6lJCIJ-56">
          <mxGeometry relative="1" as="geometry" />
        </mxCell>
        <mxCell id="FX1WW6UfW3RBcX6lJCIJ-40" value="从全局 configuration 中获取 statement" style="rounded=0;whiteSpace=wrap;html=1;fontFamily=Helvetica;fontSize=12;fontColor=#FFFFFF;" vertex="1" parent="FX1WW6UfW3RBcX6lJCIJ-37">
          <mxGeometry x="410" y="30" width="120" height="60" as="geometry" />
        </mxCell>
        <mxCell id="FX1WW6UfW3RBcX6lJCIJ-46" value="Yes" style="edgeStyle=orthogonalEdgeStyle;rounded=0;orthogonalLoop=1;jettySize=auto;html=1;fontFamily=Helvetica;fontSize=12;fontColor=#FFFFFF;" edge="1" parent="FX1WW6UfW3RBcX6lJCIJ-37" source="FX1WW6UfW3RBcX6lJCIJ-42">
          <mxGeometry relative="1" as="geometry">
            <mxPoint x="520" y="90" as="targetPoint" />
            <Array as="points">
              <mxPoint x="670" y="180" />
              <mxPoint x="520" y="180" />
              <mxPoint x="520" y="90" />
            </Array>
          </mxGeometry>
        </mxCell>
        <mxCell id="FX1WW6UfW3RBcX6lJCIJ-48" value="" style="edgeStyle=orthogonalEdgeStyle;rounded=0;orthogonalLoop=1;jettySize=auto;html=1;fontFamily=Helvetica;fontSize=12;fontColor=#FFFFFF;" edge="1" parent="FX1WW6UfW3RBcX6lJCIJ-37" source="FX1WW6UfW3RBcX6lJCIJ-42" target="FX1WW6UfW3RBcX6lJCIJ-47">
          <mxGeometry relative="1" as="geometry" />
        </mxCell>
        <mxCell id="FX1WW6UfW3RBcX6lJCIJ-42" value="有没有&lt;br style=&quot;font-size: 12px;&quot;&gt;MappedStatement" style="rhombus;whiteSpace=wrap;html=1;rounded=0;fontFamily=Helvetica;fontSize=12;fontColor=#FFFFFF;" vertex="1" parent="FX1WW6UfW3RBcX6lJCIJ-37">
          <mxGeometry x="630" y="20" width="80" height="80" as="geometry" />
        </mxCell>
        <mxCell id="FX1WW6UfW3RBcX6lJCIJ-49" value="return null" style="edgeStyle=orthogonalEdgeStyle;rounded=0;orthogonalLoop=1;jettySize=auto;html=1;fontFamily=Helvetica;fontSize=12;fontColor=#FFFFFF;" edge="1" parent="FX1WW6UfW3RBcX6lJCIJ-37" source="FX1WW6UfW3RBcX6lJCIJ-47" target="FX1WW6UfW3RBcX6lJCIJ-40">
          <mxGeometry x="-0.5057" relative="1" as="geometry">
            <Array as="points">
              <mxPoint x="845" y="180" />
              <mxPoint x="520" y="180" />
            </Array>
            <mxPoint as="offset" />
          </mxGeometry>
        </mxCell>
        <mxCell id="FX1WW6UfW3RBcX6lJCIJ-51" value="" style="edgeStyle=orthogonalEdgeStyle;rounded=0;orthogonalLoop=1;jettySize=auto;html=1;fontFamily=Helvetica;fontSize=12;fontColor=#FFFFFF;" edge="1" parent="FX1WW6UfW3RBcX6lJCIJ-37" source="FX1WW6UfW3RBcX6lJCIJ-47" target="FX1WW6UfW3RBcX6lJCIJ-50">
          <mxGeometry relative="1" as="geometry" />
        </mxCell>
        <mxCell id="FX1WW6UfW3RBcX6lJCIJ-47" value="接口和类相同吗" style="rhombus;whiteSpace=wrap;html=1;rounded=0;fontFamily=Helvetica;fontSize=12;fontColor=#FFFFFF;" vertex="1" parent="FX1WW6UfW3RBcX6lJCIJ-37">
          <mxGeometry x="790" y="20" width="110" height="80" as="geometry" />
        </mxCell>
        <mxCell id="FX1WW6UfW3RBcX6lJCIJ-52" style="edgeStyle=orthogonalEdgeStyle;rounded=0;orthogonalLoop=1;jettySize=auto;html=1;fillColor=#60a917;strokeColor=#2D7600;fontFamily=Helvetica;fontSize=12;fontColor=#FFFFFF;" edge="1" parent="FX1WW6UfW3RBcX6lJCIJ-37" source="FX1WW6UfW3RBcX6lJCIJ-50" target="FX1WW6UfW3RBcX6lJCIJ-42">
          <mxGeometry relative="1" as="geometry">
            <Array as="points">
              <mxPoint x="1052" y="130" />
              <mxPoint x="670" y="130" />
            </Array>
          </mxGeometry>
        </mxCell>
        <mxCell id="FX1WW6UfW3RBcX6lJCIJ-54" value="" style="edgeStyle=orthogonalEdgeStyle;rounded=0;orthogonalLoop=1;jettySize=auto;html=1;fontFamily=Helvetica;fontSize=12;fontColor=#FFFFFF;" edge="1" parent="FX1WW6UfW3RBcX6lJCIJ-37" source="FX1WW6UfW3RBcX6lJCIJ-50" target="FX1WW6UfW3RBcX6lJCIJ-53">
          <mxGeometry relative="1" as="geometry" />
        </mxCell>
        <mxCell id="FX1WW6UfW3RBcX6lJCIJ-50" value="获取当前类上所有接口" style="whiteSpace=wrap;html=1;rounded=0;fontFamily=Helvetica;fontSize=12;fontColor=#FFFFFF;" vertex="1" parent="FX1WW6UfW3RBcX6lJCIJ-37">
          <mxGeometry x="975" y="30" width="155" height="60" as="geometry" />
        </mxCell>
        <mxCell id="FX1WW6UfW3RBcX6lJCIJ-55" style="edgeStyle=orthogonalEdgeStyle;rounded=0;orthogonalLoop=1;jettySize=auto;html=1;fontFamily=Helvetica;fontSize=12;fontColor=#FFFFFF;" edge="1" parent="FX1WW6UfW3RBcX6lJCIJ-37" source="FX1WW6UfW3RBcX6lJCIJ-53">
          <mxGeometry relative="1" as="geometry">
            <mxPoint x="520" y="90" as="targetPoint" />
            <Array as="points">
              <mxPoint x="1329" y="180" />
              <mxPoint x="520" y="180" />
              <mxPoint x="520" y="90" />
            </Array>
          </mxGeometry>
        </mxCell>
        <mxCell id="FX1WW6UfW3RBcX6lJCIJ-53" value="获取到 MappedStatement" style="rhombus;whiteSpace=wrap;html=1;rounded=0;fontFamily=Helvetica;fontSize=12;fontColor=#FFFFFF;" vertex="1" parent="FX1WW6UfW3RBcX6lJCIJ-37">
          <mxGeometry x="1247.5" y="20" width="162.5" height="80" as="geometry" />
        </mxCell>
        <mxCell id="FX1WW6UfW3RBcX6lJCIJ-62" value="Yes" style="edgeStyle=orthogonalEdgeStyle;rounded=0;orthogonalLoop=1;jettySize=auto;html=1;fontFamily=Helvetica;fontSize=12;fontColor=#FFFFFF;" edge="1" parent="FX1WW6UfW3RBcX6lJCIJ-37" source="FX1WW6UfW3RBcX6lJCIJ-56" target="FX1WW6UfW3RBcX6lJCIJ-61">
          <mxGeometry relative="1" as="geometry" />
        </mxCell>
        <mxCell id="FX1WW6UfW3RBcX6lJCIJ-64" value="" style="edgeStyle=orthogonalEdgeStyle;rounded=0;orthogonalLoop=1;jettySize=auto;html=1;fontFamily=Helvetica;fontSize=12;fontColor=#FFFFFF;" edge="1" parent="FX1WW6UfW3RBcX6lJCIJ-37" source="FX1WW6UfW3RBcX6lJCIJ-56" target="FX1WW6UfW3RBcX6lJCIJ-63">
          <mxGeometry relative="1" as="geometry">
            <Array as="points">
              <mxPoint x="470" y="400" />
            </Array>
          </mxGeometry>
        </mxCell>
        <mxCell id="FX1WW6UfW3RBcX6lJCIJ-56" value="MappedStatement&lt;br style=&quot;font-size: 12px;&quot;&gt;为空 ?" style="rhombus;whiteSpace=wrap;html=1;rounded=0;fontFamily=Helvetica;fontSize=12;fontColor=#FFFFFF;" vertex="1" parent="FX1WW6UfW3RBcX6lJCIJ-37">
          <mxGeometry x="430" y="210" width="80" height="80" as="geometry" />
        </mxCell>
        <mxCell id="FX1WW6UfW3RBcX6lJCIJ-66" value="Yes" style="edgeStyle=orthogonalEdgeStyle;rounded=0;orthogonalLoop=1;jettySize=auto;html=1;fontFamily=Helvetica;fontSize=12;fontColor=#FFFFFF;" edge="1" parent="FX1WW6UfW3RBcX6lJCIJ-37" source="FX1WW6UfW3RBcX6lJCIJ-61" target="FX1WW6UfW3RBcX6lJCIJ-65">
          <mxGeometry relative="1" as="geometry" />
        </mxCell>
        <mxCell id="FX1WW6UfW3RBcX6lJCIJ-69" value="" style="edgeStyle=orthogonalEdgeStyle;rounded=0;orthogonalLoop=1;jettySize=auto;html=1;fontFamily=Helvetica;fontSize=12;fontColor=#FFFFFF;" edge="1" parent="FX1WW6UfW3RBcX6lJCIJ-37" source="FX1WW6UfW3RBcX6lJCIJ-61" target="FX1WW6UfW3RBcX6lJCIJ-68">
          <mxGeometry relative="1" as="geometry">
            <Array as="points">
              <mxPoint x="630" y="330" />
            </Array>
          </mxGeometry>
        </mxCell>
        <mxCell id="FX1WW6UfW3RBcX6lJCIJ-61" value="方法是否包含&lt;br style=&quot;font-size: 12px;&quot;&gt;@Flush" style="rhombus;whiteSpace=wrap;html=1;rounded=0;fontFamily=Helvetica;fontSize=12;fontColor=#FFFFFF;" vertex="1" parent="FX1WW6UfW3RBcX6lJCIJ-37">
          <mxGeometry x="590" y="210" width="80" height="80" as="geometry" />
        </mxCell>
        <mxCell id="FX1WW6UfW3RBcX6lJCIJ-63" value="设置 name, type" style="whiteSpace=wrap;html=1;rounded=0;fontFamily=Helvetica;fontSize=12;fontColor=#FFFFFF;" vertex="1" parent="FX1WW6UfW3RBcX6lJCIJ-37">
          <mxGeometry x="570" y="370" width="120" height="60" as="geometry" />
        </mxCell>
        <mxCell id="FX1WW6UfW3RBcX6lJCIJ-65" value="type = SqlCommandType.FLUSH" style="whiteSpace=wrap;html=1;rounded=0;fontFamily=Helvetica;fontSize=12;fontColor=#FFFFFF;" vertex="1" parent="FX1WW6UfW3RBcX6lJCIJ-37">
          <mxGeometry x="730" y="230" width="210" height="40" as="geometry" />
        </mxCell>
        <mxCell id="FX1WW6UfW3RBcX6lJCIJ-68" value="throw BingdingException" style="whiteSpace=wrap;html=1;rounded=0;fillColor=#e51400;fontColor=#FFFFFF;strokeColor=#B20000;fontFamily=Helvetica;fontSize=12;" vertex="1" parent="FX1WW6UfW3RBcX6lJCIJ-37">
          <mxGeometry x="730" y="310" width="210" height="41" as="geometry" />
        </mxCell>
        <mxCell id="FX1WW6UfW3RBcX6lJCIJ-70" value="创建&lt;br style=&quot;font-size: 12px;&quot;&gt;&amp;nbsp;MethodSignature" style="whiteSpace=wrap;html=1;rounded=0;glass=0;strokeWidth=1;shadow=0;fontFamily=Helvetica;fontSize=12;fontColor=#FFFFFF;" vertex="1" parent="FX1WW6UfW3RBcX6lJCIJ-37">
          <mxGeometry x="210" y="490" width="120" height="60" as="geometry" />
        </mxCell>
        <mxCell id="FX1WW6UfW3RBcX6lJCIJ-84" style="edgeStyle=orthogonalEdgeStyle;rounded=0;hachureGap=4;orthogonalLoop=1;jettySize=auto;html=1;fontFamily=Helvetica;fontSize=12;fontColor=#FFFFFF;" edge="1" parent="FX1WW6UfW3RBcX6lJCIJ-37" source="FX1WW6UfW3RBcX6lJCIJ-78" target="FX1WW6UfW3RBcX6lJCIJ-83">
          <mxGeometry relative="1" as="geometry" />
        </mxCell>
        <mxCell id="FX1WW6UfW3RBcX6lJCIJ-78" value="&lt;font style=&quot;font-size: 12px;&quot;&gt;execute(SqlSession sqlSession, Object[] args)&lt;/font&gt;" style="whiteSpace=wrap;html=1;rounded=0;hachureGap=4;fontFamily=Helvetica;fontSize=12;fontColor=#FFFFFF;" vertex="1" parent="FX1WW6UfW3RBcX6lJCIJ-37">
          <mxGeometry x="1440" y="40" width="320" height="60" as="geometry" />
        </mxCell>
        <mxCell id="FX1WW6UfW3RBcX6lJCIJ-86" value="" style="edgeStyle=orthogonalEdgeStyle;rounded=0;orthogonalLoop=1;jettySize=auto;html=1;" edge="1" parent="FX1WW6UfW3RBcX6lJCIJ-37" source="FX1WW6UfW3RBcX6lJCIJ-83" target="FX1WW6UfW3RBcX6lJCIJ-85">
          <mxGeometry relative="1" as="geometry">
            <Array as="points">
              <mxPoint x="1600" y="310" />
            </Array>
          </mxGeometry>
        </mxCell>
        <mxCell id="FX1WW6UfW3RBcX6lJCIJ-89" style="edgeStyle=orthogonalEdgeStyle;rounded=0;orthogonalLoop=1;jettySize=auto;html=1;" edge="1" parent="FX1WW6UfW3RBcX6lJCIJ-37" source="FX1WW6UfW3RBcX6lJCIJ-83" target="FX1WW6UfW3RBcX6lJCIJ-87">
          <mxGeometry relative="1" as="geometry">
            <Array as="points">
              <mxPoint x="1600" y="410" />
            </Array>
          </mxGeometry>
        </mxCell>
        <mxCell id="FX1WW6UfW3RBcX6lJCIJ-91" value="" style="edgeStyle=orthogonalEdgeStyle;rounded=0;orthogonalLoop=1;jettySize=auto;html=1;" edge="1" parent="FX1WW6UfW3RBcX6lJCIJ-37" source="FX1WW6UfW3RBcX6lJCIJ-83" target="FX1WW6UfW3RBcX6lJCIJ-90">
          <mxGeometry relative="1" as="geometry">
            <Array as="points">
              <mxPoint x="1600" y="520" />
            </Array>
          </mxGeometry>
        </mxCell>
        <mxCell id="FX1WW6UfW3RBcX6lJCIJ-95" value="" style="edgeStyle=orthogonalEdgeStyle;rounded=0;orthogonalLoop=1;jettySize=auto;html=1;" edge="1" parent="FX1WW6UfW3RBcX6lJCIJ-37" source="FX1WW6UfW3RBcX6lJCIJ-83" target="FX1WW6UfW3RBcX6lJCIJ-94">
          <mxGeometry relative="1" as="geometry">
            <Array as="points">
              <mxPoint x="1600" y="740" />
            </Array>
          </mxGeometry>
        </mxCell>
        <mxCell id="FX1WW6UfW3RBcX6lJCIJ-83" value="SqlCommand.type" style="shape=parallelogram;perimeter=parallelogramPerimeter;whiteSpace=wrap;html=1;fixedSize=1;hachureGap=4;fontFamily=Helvetica;fontSize=12;rounded=0;fontColor=#FFFFFF;" vertex="1" parent="FX1WW6UfW3RBcX6lJCIJ-37">
          <mxGeometry x="1490" y="150" width="220" height="60" as="geometry" />
        </mxCell>
        <mxCell id="FX1WW6UfW3RBcX6lJCIJ-85" value="INSERT" style="rhombus;whiteSpace=wrap;html=1;fontColor=#FFFFFF;hachureGap=4;rounded=0;" vertex="1" parent="FX1WW6UfW3RBcX6lJCIJ-37">
          <mxGeometry x="1680" y="270" width="80" height="80" as="geometry" />
        </mxCell>
        <mxCell id="FX1WW6UfW3RBcX6lJCIJ-87" value="UPDATE" style="rhombus;whiteSpace=wrap;html=1;fontColor=#FFFFFF;hachureGap=4;rounded=0;" vertex="1" parent="FX1WW6UfW3RBcX6lJCIJ-37">
          <mxGeometry x="1680" y="370" width="80" height="80" as="geometry" />
        </mxCell>
        <mxCell id="FX1WW6UfW3RBcX6lJCIJ-90" value="DELETE" style="rhombus;whiteSpace=wrap;html=1;fontColor=#FFFFFF;hachureGap=4;rounded=0;" vertex="1" parent="FX1WW6UfW3RBcX6lJCIJ-37">
          <mxGeometry x="1680" y="480" width="80" height="80" as="geometry" />
        </mxCell>
        <mxCell id="FX1WW6UfW3RBcX6lJCIJ-94" value="FLUSH" style="rhombus;whiteSpace=wrap;html=1;fontColor=#FFFFFF;hachureGap=4;rounded=0;" vertex="1" parent="FX1WW6UfW3RBcX6lJCIJ-37">
          <mxGeometry x="1680" y="700" width="80" height="80" as="geometry" />
        </mxCell>
        <mxCell id="FX1WW6UfW3RBcX6lJCIJ-103" value="" style="edgeStyle=orthogonalEdgeStyle;rounded=0;orthogonalLoop=1;jettySize=auto;html=1;" edge="1" parent="FX1WW6UfW3RBcX6lJCIJ-37" source="FX1WW6UfW3RBcX6lJCIJ-100" target="FX1WW6UfW3RBcX6lJCIJ-102">
          <mxGeometry relative="1" as="geometry" />
        </mxCell>
        <mxCell id="FX1WW6UfW3RBcX6lJCIJ-105" value="" style="edgeStyle=orthogonalEdgeStyle;rounded=0;orthogonalLoop=1;jettySize=auto;html=1;" edge="1" parent="FX1WW6UfW3RBcX6lJCIJ-37" source="FX1WW6UfW3RBcX6lJCIJ-100" target="FX1WW6UfW3RBcX6lJCIJ-104">
          <mxGeometry relative="1" as="geometry" />
        </mxCell>
        <mxCell id="FX1WW6UfW3RBcX6lJCIJ-100" value="无返回值 &amp;amp;&amp;amp; 有 ResultHandler" style="rhombus;whiteSpace=wrap;html=1;fontColor=#FFFFFF;hachureGap=4;rounded=0;" vertex="1" parent="FX1WW6UfW3RBcX6lJCIJ-37">
          <mxGeometry x="1870" y="590" width="80" height="80" as="geometry" />
        </mxCell>
        <mxCell id="FX1WW6UfW3RBcX6lJCIJ-102" value="executeWithResultHandler(SqlSession sqlSession, Object[] args)" style="whiteSpace=wrap;html=1;fontColor=#FFFFFF;hachureGap=4;rounded=0;" vertex="1" parent="FX1WW6UfW3RBcX6lJCIJ-37">
          <mxGeometry x="2010" y="600" width="380" height="60" as="geometry" />
        </mxCell>
        <mxCell id="FX1WW6UfW3RBcX6lJCIJ-107" value="" style="edgeStyle=orthogonalEdgeStyle;rounded=0;orthogonalLoop=1;jettySize=auto;html=1;" edge="1" parent="FX1WW6UfW3RBcX6lJCIJ-37" source="FX1WW6UfW3RBcX6lJCIJ-104" target="FX1WW6UfW3RBcX6lJCIJ-106">
          <mxGeometry relative="1" as="geometry" />
        </mxCell>
        <mxCell id="FX1WW6UfW3RBcX6lJCIJ-109" value="" style="edgeStyle=orthogonalEdgeStyle;rounded=0;orthogonalLoop=1;jettySize=auto;html=1;" edge="1" parent="FX1WW6UfW3RBcX6lJCIJ-37" source="FX1WW6UfW3RBcX6lJCIJ-104" target="FX1WW6UfW3RBcX6lJCIJ-108">
          <mxGeometry relative="1" as="geometry" />
        </mxCell>
        <mxCell id="FX1WW6UfW3RBcX6lJCIJ-104" value="返回列表" style="rhombus;whiteSpace=wrap;html=1;fontColor=#FFFFFF;hachureGap=4;rounded=0;" vertex="1" parent="FX1WW6UfW3RBcX6lJCIJ-37">
          <mxGeometry x="1870" y="700" width="80" height="80" as="geometry" />
        </mxCell>
        <mxCell id="FX1WW6UfW3RBcX6lJCIJ-106" value="executeForMany(SqlSession sqlSession, Object[] args)" style="whiteSpace=wrap;html=1;fontColor=#FFFFFF;hachureGap=4;rounded=0;" vertex="1" parent="FX1WW6UfW3RBcX6lJCIJ-37">
          <mxGeometry x="2010" y="710" width="390" height="60" as="geometry" />
        </mxCell>
        <mxCell id="FX1WW6UfW3RBcX6lJCIJ-111" value="" style="edgeStyle=orthogonalEdgeStyle;rounded=0;orthogonalLoop=1;jettySize=auto;html=1;" edge="1" parent="FX1WW6UfW3RBcX6lJCIJ-37" source="FX1WW6UfW3RBcX6lJCIJ-108" target="FX1WW6UfW3RBcX6lJCIJ-110">
          <mxGeometry relative="1" as="geometry" />
        </mxCell>
        <mxCell id="FX1WW6UfW3RBcX6lJCIJ-113" value="" style="edgeStyle=orthogonalEdgeStyle;rounded=0;orthogonalLoop=1;jettySize=auto;html=1;" edge="1" parent="FX1WW6UfW3RBcX6lJCIJ-37" source="FX1WW6UfW3RBcX6lJCIJ-108" target="FX1WW6UfW3RBcX6lJCIJ-112">
          <mxGeometry relative="1" as="geometry" />
        </mxCell>
        <mxCell id="FX1WW6UfW3RBcX6lJCIJ-108" value="返回 Map" style="rhombus;whiteSpace=wrap;html=1;fontColor=#FFFFFF;hachureGap=4;rounded=0;" vertex="1" parent="FX1WW6UfW3RBcX6lJCIJ-37">
          <mxGeometry x="1870" y="860" width="80" height="80" as="geometry" />
        </mxCell>
        <mxCell id="FX1WW6UfW3RBcX6lJCIJ-110" value="executeForMap(SqlSession sqlSession, Object[] args)" style="whiteSpace=wrap;html=1;fontColor=#FFFFFF;hachureGap=4;rounded=0;" vertex="1" parent="FX1WW6UfW3RBcX6lJCIJ-37">
          <mxGeometry x="2010" y="870" width="390" height="60" as="geometry" />
        </mxCell>
        <mxCell id="FX1WW6UfW3RBcX6lJCIJ-115" value="" style="edgeStyle=orthogonalEdgeStyle;rounded=0;orthogonalLoop=1;jettySize=auto;html=1;" edge="1" parent="FX1WW6UfW3RBcX6lJCIJ-37" source="FX1WW6UfW3RBcX6lJCIJ-112" target="FX1WW6UfW3RBcX6lJCIJ-114">
          <mxGeometry relative="1" as="geometry" />
        </mxCell>
        <mxCell id="FX1WW6UfW3RBcX6lJCIJ-112" value="返回 Cursor" style="rhombus;whiteSpace=wrap;html=1;fontColor=#FFFFFF;hachureGap=4;rounded=0;" vertex="1" parent="FX1WW6UfW3RBcX6lJCIJ-37">
          <mxGeometry x="1870" y="1020" width="80" height="80" as="geometry" />
        </mxCell>
        <mxCell id="FX1WW6UfW3RBcX6lJCIJ-114" value="executeForCursor(SqlSession sqlSession, Object[] args)" style="whiteSpace=wrap;html=1;fontColor=#FFFFFF;hachureGap=4;rounded=0;" vertex="1" parent="FX1WW6UfW3RBcX6lJCIJ-37">
          <mxGeometry x="2010" y="1030" width="400" height="60" as="geometry" />
        </mxCell>
        <mxCell id="FX1WW6UfW3RBcX6lJCIJ-77" style="edgeStyle=orthogonalEdgeStyle;rounded=0;hachureGap=4;orthogonalLoop=1;jettySize=auto;html=1;fontFamily=Helvetica;fontSize=12;fontColor=#FFFFFF;" edge="1" parent="WIyWlLk6GJQsqaUBKTNV-1" source="FX1WW6UfW3RBcX6lJCIJ-74" target="FX1WW6UfW3RBcX6lJCIJ-25">
          <mxGeometry relative="1" as="geometry" />
        </mxCell>
        <mxCell id="FX1WW6UfW3RBcX6lJCIJ-79" value="" style="edgeStyle=orthogonalEdgeStyle;rounded=0;hachureGap=4;orthogonalLoop=1;jettySize=auto;html=1;fontFamily=Helvetica;fontSize=12;fontColor=#FFFFFF;" edge="1" parent="WIyWlLk6GJQsqaUBKTNV-1" source="FX1WW6UfW3RBcX6lJCIJ-25" target="FX1WW6UfW3RBcX6lJCIJ-78">
          <mxGeometry relative="1" as="geometry" />
        </mxCell>
        <mxCell id="FX1WW6UfW3RBcX6lJCIJ-101" value="" style="edgeStyle=orthogonalEdgeStyle;rounded=0;orthogonalLoop=1;jettySize=auto;html=1;" edge="1" parent="WIyWlLk6GJQsqaUBKTNV-1" source="FX1WW6UfW3RBcX6lJCIJ-92" target="FX1WW6UfW3RBcX6lJCIJ-100">
          <mxGeometry relative="1" as="geometry" />
        </mxCell>
        <mxCell id="FX1WW6UfW3RBcX6lJCIJ-92" value="SELECT" style="rhombus;whiteSpace=wrap;html=1;fontColor=#FFFFFF;hachureGap=4;rounded=0;" vertex="1" parent="WIyWlLk6GJQsqaUBKTNV-1">
          <mxGeometry x="1730" y="1880" width="80" height="80" as="geometry" />
        </mxCell>
        <mxCell id="FX1WW6UfW3RBcX6lJCIJ-93" value="" style="edgeStyle=orthogonalEdgeStyle;rounded=0;orthogonalLoop=1;jettySize=auto;html=1;" edge="1" parent="WIyWlLk6GJQsqaUBKTNV-1" source="FX1WW6UfW3RBcX6lJCIJ-83" target="FX1WW6UfW3RBcX6lJCIJ-92">
          <mxGeometry relative="1" as="geometry">
            <Array as="points">
              <mxPoint x="1650" y="1920" />
            </Array>
          </mxGeometry>
        </mxCell>
        <mxCell id="FX1WW6UfW3RBcX6lJCIJ-98" value="BindingException" style="whiteSpace=wrap;html=1;fontColor=#FFFFFF;hachureGap=4;rounded=0;" vertex="1" parent="WIyWlLk6GJQsqaUBKTNV-1">
          <mxGeometry x="1710" y="2110" width="120" height="60" as="geometry" />
        </mxCell>
        <mxCell id="FX1WW6UfW3RBcX6lJCIJ-99" value="" style="edgeStyle=orthogonalEdgeStyle;rounded=0;orthogonalLoop=1;jettySize=auto;html=1;" edge="1" parent="WIyWlLk6GJQsqaUBKTNV-1" source="FX1WW6UfW3RBcX6lJCIJ-83" target="FX1WW6UfW3RBcX6lJCIJ-98">
          <mxGeometry relative="1" as="geometry">
            <Array as="points">
              <mxPoint x="1650" y="2140" />
            </Array>
          </mxGeometry>
        </mxCell>
        <mxCell id="FX1WW6UfW3RBcX6lJCIJ-121" value="" style="edgeStyle=orthogonalEdgeStyle;rounded=0;orthogonalLoop=1;jettySize=auto;html=1;" edge="1" parent="WIyWlLk6GJQsqaUBKTNV-1" source="FX1WW6UfW3RBcX6lJCIJ-118" target="FX1WW6UfW3RBcX6lJCIJ-120">
          <mxGeometry relative="1" as="geometry" />
        </mxCell>
        <mxCell id="FX1WW6UfW3RBcX6lJCIJ-118" value="传入参数封装成 &lt;br&gt;ParamMap" style="whiteSpace=wrap;html=1;fontColor=#FFFFFF;hachureGap=4;rounded=0;" vertex="1" parent="WIyWlLk6GJQsqaUBKTNV-1">
          <mxGeometry x="2068" y="2450" width="120" height="60" as="geometry" />
        </mxCell>
        <mxCell id="FX1WW6UfW3RBcX6lJCIJ-119" value="" style="edgeStyle=orthogonalEdgeStyle;rounded=0;orthogonalLoop=1;jettySize=auto;html=1;" edge="1" parent="WIyWlLk6GJQsqaUBKTNV-1" source="FX1WW6UfW3RBcX6lJCIJ-112" target="FX1WW6UfW3RBcX6lJCIJ-118">
          <mxGeometry relative="1" as="geometry">
            <Array as="points">
              <mxPoint x="1960" y="2480" />
            </Array>
          </mxGeometry>
        </mxCell>
        <mxCell id="FX1WW6UfW3RBcX6lJCIJ-120" value="调用&lt;br&gt;sqlSession.selectOne" style="whiteSpace=wrap;html=1;fontColor=#FFFFFF;hachureGap=4;rounded=0;" vertex="1" parent="WIyWlLk6GJQsqaUBKTNV-1">
          <mxGeometry x="2268" y="2450" width="152" height="60" as="geometry" />
        </mxCell>
      </root>
    </mxGraphModel>
  </diagram>
</mxfile>
